<svg width="180" height="180" viewBox="0 0 180 180" fill="none" xmlns="http://www.w3.org/2000/svg">
  <rect width="180" height="180" rx="36" fill="#0ea5e9"/>
  <circle cx="90" cy="90" r="62" fill="#0284c7"/>
  <path d="M68 90 C68 76 76 64 90 60 C82 62 76 74 76 90 C76 106 82 118 90 120 C76 116 68 104 68 90Z" fill="white" opacity="0.9"/>
  <path d="M112 90 C112 104 104 116 90 120 C98 118 104 106 104 90 C104 74 98 62 90 60 C104 64 112 76 112 90Z" fill="white" opacity="0.6"/>
  <ellipse cx="90" cy="90" rx="28" ry="14" fill="none" stroke="white" stroke-width="5" opacity="0.8"/>
  <line x1="62" y1="90" x2="118" y2="90" stroke="white" stroke-width="5" opacity="0.8"/>
</svg>
